<?xml version="1.0" encoding="utf-8"?>
<!-- Generator: Adobe Illustrator 21.1.0, SVG Export Plug-In . SVG Version: 6.00 Build 0)  -->
<!DOCTYPE svg PUBLIC "-//W3C//DTD SVG 1.1//EN" "http://www.w3.org/Graphics/SVG/1.1/DTD/svg11.dtd">
<svg version="1.1" id="Layer_1" xmlns="http://www.w3.org/2000/svg" xmlns:xlink="http://www.w3.org/1999/xlink" x="0px" y="0px"
	 viewBox="0 0 153 24" style="enable-background:new 0 0 153 24;" xml:space="preserve">
<style type="text/css">
	.st0{fill:#0759DD;}
</style>
<title>BmLogoType</title>
<desc>Created with Sketch.</desc>
<g id="Page-1">
	<g id="BmLogoType" transform="translate(0.500000, -0.687500)">
		<path id="Fill-1" class="st0" d="M0,0"/>
		<polygon id="Fill-3" class="st0" points="91.3,24.2 87.6,24.2 87.6,13.6 80.7,24.2 73.8,13.6 73.8,24.2 70.1,24.2 70.1,2.3 
			70.2,2.3 80.7,18.3 91.2,2.3 91.3,2.3 		"/>
		<path id="Fill-4" class="st0" d="M117.4,21.3c2.4,0,4.1-1.9,4.1-4.8c0-2.9-1.7-4.8-4.1-4.8c-1.9,0-3,1-3.8,2.3v7.2L117.4,21.3z
			 M113.6,10.2c0.8-1,2.3-1.9,4.6-1.9c4.2,0,7.1,3.4,7.1,8.1c0,4.7-2.9,8.1-7.1,8.1c-1.2,0-4.6-0.3-6.2-0.3h-2.1V3.1l3.7-1.2V10.2z"
			/>
		<path id="Fill-6" class="st0" d="M24.7,16.4c0,2.9,1.7,4.8,4.1,4.8c1.9,0,3-1,3.8-2.3v-5c-0.8-1.3-1.9-2.3-3.8-2.3
			C26.4,11.6,24.7,13.5,24.7,16.4 M32.8,10.5L33,8.6l3.3,1.2v14.4H33l-0.2-1.8c-0.9,1.2-2.4,2.1-4.8,2.1c-4.2,0-7.1-3.4-7.1-8.1
			c0-4.7,2.9-8.1,7.1-8.1C30.4,8.3,32,9.3,32.8,10.5"/>
		<path id="Fill-9" class="st0" d="M52.6,15.1v9.1h-3.7v-8.9c0-2.1-1.2-3.5-3.1-3.5c-1.6,0-2.8,1-3.5,2.2v10.2h-3.7V8.6l3.3,1.2
			l0.2,0.6c0.9-1.1,2.4-2.1,4.7-2.1C50.5,8.3,52.6,11,52.6,15.1"/>
		<polygon id="Fill-11" class="st0" points="69,8.7 65.2,8.7 58.6,17.7 58.6,3.1 54.9,1.9 54.9,24.2 57.8,24.2 61.5,19.1 64.7,24.2 
			68.9,24.2 63.7,16.1 		"/>
		<path id="Fill-13" class="st0" d="M96.3,16.5c0,2.8,1.8,4.8,4.3,4.8s4.4-2,4.4-4.8c0-2.8-1.9-4.9-4.4-4.9S96.3,13.7,96.3,16.5
			 M108.7,16.5c0,4.7-3.4,8.1-8.1,8.1c-4.7,0-8.1-3.4-8.1-8.1c0-4.7,3.4-8.1,8.1-8.1C105.3,8.3,108.7,11.8,108.7,16.5"/>
		<path id="Fill-15" class="st0" d="M130.1,5.3c0,1.1-0.8,1.8-1.9,1.8c-1,0-1.8-0.8-1.8-1.8c0-1.1,0.8-1.8,1.8-1.8
			C129.3,3.5,130.1,4.2,130.1,5.3"/>
		<polygon id="Fill-17" class="st0" points="136.1,24.2 132.3,24.2 132.3,1.9 136.1,0.7 		"/>
		<path id="Fill-20" class="st0" d="M144.8,11.3c2.2,0,3.5,1.5,3.6,3.6H141C141.1,12.8,142.6,11.3,144.8,11.3 M145,21.4
			c-2.6,0-3.8-1.4-3.9-3.9h11v-1.2c0-4.4-2.4-8-7.2-8c-4.5,0-7.6,3.4-7.6,8.1c0,4.7,2.9,8.1,7.7,8.1c2.9,0,4.8-1,6.2-2.8
			c0.3-0.4,0.5-0.6,0.6-0.8l-3.3-1.1C147.8,20.7,146.7,21.4,145,21.4"/>
		<polygon id="Fill-23" class="st0" points="130.1,24.2 126.4,24.2 126.4,9.8 130.1,8.6 		"/>
		<path id="Fill-25" class="st0" d="M16.2,13.1L16.2,13.1c1.1-0.7,2.3-2.1,2.3-4.4c0-3.5-2.4-5.7-6.8-5.7c-4.4,0-8,0.4-8,0.4v3.1
			C4.9,7,6.1,7.5,7.2,8V6.5c0,0,1.7-0.1,3.9-0.1c2.2,0,3.6,1.1,3.6,2.8c0,1.2-1.1,2.9-2.2,2.4c-0.7-0.3-7.5-3.2-12.4-5.2v3.3
			c5.9,2.5,14.7,6.2,15.1,6.5c1.1,0.5,1.3,1.4,1.3,2c0,2-1.5,3-3.9,3S7.2,21,7.2,21v-6.8c-1.2-0.5-2.4-1-3.6-1.5v11.4
			c0,0,5.4,0.5,9.4,0.5s7.1-2.2,7.1-6.2C20.2,15.4,18.4,13.8,16.2,13.1"/>
	</g>
</g>
</svg>
