<?xml version="1.0" encoding="UTF-8"?>
<svg width="153px" height="24px" viewBox="0 0 153 24" version="1.1" xmlns="http://www.w3.org/2000/svg" xmlns:xlink="http://www.w3.org/1999/xlink">
    <!-- Generator: Sketch 42 (36781) - http://www.bohemiancoding.com/sketch -->
    <title>BmLogoType</title>
    <desc>Created with Sketch.</desc>
    <defs></defs>
    <g id="Page-1" stroke="none" stroke-width="1" fill="none" fill-rule="evenodd">
        <g id="BmLogoType" transform="translate(0.070312, -0.687500)" fill="#C462E8">
            <g transform="translate(0.054443, 0.605000)">
                <path id="Fill-1"></path>
                <polygon id="Fill-3" points="91.232394 23.5895403 87.5688716 23.5895403 87.5688716 13.0094806 80.6376478 23.5895403 73.7063045 13.0094806 73.7063045 23.5895403 70.0427821 23.5895403 70.0427821 1.66727164 70.1600358 1.66727164 80.6523343 17.6986746 91.1151403 1.66727164 91.232394 1.66727164"></polygon>
                <g id="Group-27" transform="translate(0.000000, 0.062806)">
                    <path d="M117.334304,20.6008955 C119.747558,20.6008955 121.480334,18.7134925 121.480334,15.7742687 C121.480334,12.8349254 119.747558,10.9475224 117.334304,10.9475224 C115.477827,10.9475224 114.332991,11.9376119 113.528573,13.268 L113.528573,20.4296716 L117.334304,20.6008955 Z M113.528573,9.52423881 C114.364036,8.53414925 115.84917,7.6678806 118.138722,7.6678806 C122.346603,7.6678806 125.223976,11.0713433 125.223976,15.7742687 C125.223976,20.4462687 122.346603,23.8805373 118.138722,23.8805373 C116.963081,23.8805373 113.526543,23.5711642 111.963319,23.5711642 L109.815737,23.5711642 L109.815737,2.44459701 L113.528573,1.25056716 L113.528573,9.52423881 Z" id="Fill-4"></path>
                    <g id="Group-8" transform="translate(20.776119, 7.641791)">
                        <path d="M3.88065672,8.13242985 C3.88065672,11.0717731 5.61331343,12.9590567 8.02668657,12.9590567 C9.88304478,12.9590567 10.9969552,11.9689672 11.8322985,10.6385791 L11.8322985,5.6262806 C10.9969552,4.29589254 9.88304478,3.30580299 8.02668657,3.30580299 C5.61331343,3.30580299 3.88065672,5.19308657 3.88065672,8.13242985 M12.0178507,2.16096716 L12.2035224,0.335534328 L15.5450149,1.52956418 L15.5450149,15.9293254 L12.2035224,15.9293254 L12.0178507,14.1038925 C11.1515821,15.2796537 9.57367164,16.2388179 7.22214925,16.2388179 C2.98334328,16.2388179 0.105970149,12.8044299 0.105970149,8.13242985 C0.105970149,3.42950448 2.98334328,0.026041791 7.22214925,0.026041791 C9.57367164,0.026041791 11.1515821,0.98520597 12.0178507,2.16096716" id="Fill-6"></path>
                    </g>
                    <path d="M52.5792358,14.4437731 L52.5792358,23.5711761 L48.8354746,23.5711761 L48.8354746,14.6603701 C48.8354746,12.5874149 47.6287881,11.1641313 45.7105791,11.1641313 C44.0705791,11.1641313 42.9567881,12.1851463 42.1832955,13.3609075 L42.1832955,23.5711761 L38.4704597,23.5711761 L38.4704597,7.97726567 L41.8119522,9.17129552 L41.9666985,9.77189254 C42.8330866,8.65798209 44.410997,7.66789254 46.6696239,7.66789254 C50.4752358,7.66789254 52.5792358,10.3597134 52.5792358,14.4437731" id="Fill-9"></path>
                    <polygon id="Fill-11" points="68.9699701 8.02398806 65.1115821 8.02398806 58.507403 17.0737791 58.507403 2.44464478 54.8059104 1.25061493 54.8059104 23.5463761 57.7077612 23.5463761 61.4038806 18.4285254 64.6893731 23.5463761 68.8398209 23.5463761 63.6254925 15.3881672"></polygon>
                    <path d="M96.2414328,15.8051821 C96.2414328,18.5897791 98.0668657,20.6008836 100.573015,20.6008836 C103.079164,20.6008836 104.935522,18.5897791 104.935522,15.8051821 C104.935522,12.9895403 103.079164,10.9475104 100.573015,10.9475104 C98.0668657,10.9475104 96.2414328,12.9895403 96.2414328,15.8051821 M108.679284,15.8051821 C108.679284,20.4771821 105.245015,23.8805254 100.573015,23.8805254 C95.9010149,23.8805254 92.4667463,20.4771821 92.4667463,15.8051821 C92.4667463,11.1022567 95.9010149,7.66786866 100.573015,7.66786866 C105.245015,7.66786866 108.679284,11.1022567 108.679284,15.8051821" id="Fill-13"></path>
                    <path d="M130.07323,4.62998209 C130.07323,5.70138507 129.275737,6.47380299 128.204454,6.47380299 C127.157887,6.47380299 126.360394,5.70138507 126.360394,4.62998209 C126.360394,3.5584597 127.157887,2.78604179 128.204454,2.78604179 C129.275737,2.78604179 130.07323,3.5584597 130.07323,4.62998209" id="Fill-15"></path>
                    <g id="Group-19" transform="translate(132.179104, 0.000000)">
                        <polygon id="Fill-17" points="3.81820896 23.5711522 0.105373134 23.5711522 0.105373134 1.25055522 3.81820896 0.0565253731"></polygon>
                    </g>
                    <g id="Group-22" transform="translate(137.194030, 7.641791)">
                        <path d="M7.58185075,2.97111642 C9.80967164,2.97111642 11.0470448,4.44192239 11.1399403,6.59117612 L3.77635821,6.59117612 C3.8999403,4.44192239 5.38507463,2.97111642 7.58185075,2.97111642 M7.71426866,13.084191 C5.11546269,13.084191 3.86913433,11.7255045 3.77635821,9.21804179 L14.8059701,9.21804179 L14.8059701,7.97780299 C14.8059701,3.61517612 12.4470448,0.026041791 7.65134328,0.026041791 C3.16501493,0.026041791 0.00537313433,3.46042985 0.00537313433,8.16335522 C0.00537313433,12.8353552 2.85862687,16.2388179 7.68537313,16.2388179 C10.5628657,16.2388179 12.4985075,15.2677134 13.9121194,13.4232955 C14.2041791,13.0420418 14.3986866,12.7743403 14.5257313,12.587594 L11.2366567,11.4434746 C10.5032836,12.368609 9.45337313,13.084191 7.71426866,13.084191" id="Fill-20"></path>
                    </g>
                    <polygon id="Fill-23" points="130.07323 23.5711522 126.360394 23.5711522 126.360394 9.17127164 130.07323 7.97724179"></polygon>
                    <path d="M16.108203,12.4484299 L16.0314269,12.4160716 C17.1718448,11.7689075 18.3673075,10.3345194 18.3673075,8.08365373 C18.3673075,4.53738507 16.0034866,2.33941493 11.5608597,2.33941493 C7.11811343,2.33941493 3.58211343,2.69762388 3.58211343,2.69762388 L3.58211343,5.79350448 C4.80515821,6.30884776 6.03071045,6.82574328 7.16420299,7.30419104 L7.16420299,5.79983284 C7.16420299,5.79983284 8.85411343,5.68042985 11.0659343,5.68042985 C13.2776358,5.68042985 14.6432478,6.73547463 14.6432478,8.52329552 C14.6432478,9.71899701 13.5583522,11.437803 12.397994,10.9475343 C11.6630687,10.6370866 4.89554627,7.77583284 2.3880597e-05,5.71875821 L2.3880597e-05,9.03756418 C5.85077015,11.5099224 14.6926806,15.280191 15.1435463,15.4883104 C16.2388299,15.9941015 16.4080239,16.8444896 16.4080239,17.4914149 C16.4080239,19.4844896 14.8634269,20.5395343 12.5188299,20.5395343 C10.1742328,20.5395343 7.16420299,20.3007284 7.16420299,20.3007284 L7.16420299,13.509206 C5.98784478,13.0087881 4.77160597,12.4920119 3.58211343,11.9874149 L3.58211343,23.4029373 C3.58211343,23.4029373 9.00850149,23.8805493 12.9969194,23.8805493 C16.9853373,23.8805493 20.1074866,21.653206 20.1074866,17.7259224 C20.1074866,14.6868776 18.3816358,13.1632955 16.108203,12.4484299" id="Fill-25"></path>
                </g>
            </g>
        </g>
    </g>
</svg>