<?xml version="1.0" encoding="utf-8"?>
<!-- Generator: Adobe Illustrator 21.1.0, SVG Export Plug-In . SVG Version: 6.00 Build 0)  -->
<!DOCTYPE svg PUBLIC "-//W3C//DTD SVG 1.1//EN" "http://www.w3.org/Graphics/SVG/1.1/DTD/svg11.dtd">
<svg version="1.1" id="Logotype" xmlns="http://www.w3.org/2000/svg" xmlns:xlink="http://www.w3.org/1999/xlink" x="0px" y="0px"
	 viewBox="0 0 629.9 675.2" style="enable-background:new 0 0 629.9 675.2;" xml:space="preserve">
<style type="text/css">
	.st0{fill:#0759DD;}
</style>
<title>BmThumbVibe</title>
<path class="st0" d="M504.5,316.9l-2.4-1c35.8-20.3,73.2-65.2,73.2-135.8C575.3,68.9,501.4,0,362.1,0S112.3,11.2,112.3,11.2v97
	c37.8,16.2,76.8,32.4,112.3,47.3v-47.1c0,0,52.7-3.7,122-3.7s112,33.1,112,89.1c0,37.5-33.9,91.4-70.2,76
	c-23-9.7-236-99.4-388.4-163.9v104c183.2,77.5,460.3,195.7,474.4,202.2c34.4,15.9,39.6,42.5,39.6,62.8c0,62.5-48.2,95.5-121.7,95.5
	S224.6,563,224.6,563V350.1c-37.8-15.7-75.7-31.9-112.3-47.7v357.8c0,0,169.9,15,294.9,15s222.8-69.8,222.8-192.9
	C629.9,387,575.7,339.3,504.5,316.9z"/>
</svg>
