<svg id="Logotype" xmlns="http://www.w3.org/2000/svg" viewBox="0 0 629.93 675.19"><defs><style>.cls-1{fill:#c462e8;}</style></defs><title>BmThumbBold</title><path class="cls-1" d="M504.45,316.86l-2.41-1c35.75-20.29,73.22-65.25,73.22-135.8C575.26,68.89,501.41,0,362.15,0S112.3,11.23,112.3,11.23v97c37.83,16.15,76.84,32.36,112.3,47.35V108.47s52.72-3.74,122-3.74,112,33.07,112,89.11c0,37.48-33.85,91.35-70.21,76-23-9.73-236-99.42-388.44-163.89v104c183.23,77.5,460.31,195.67,474.44,202.2C508.77,428,514,454.65,514,474.93c0,62.47-48.23,95.54-121.71,95.54S224.6,563,224.6,563V350.11c-37.83-15.68-75.66-31.88-112.3-47.7V660.22s169.85,15,294.87,15,222.76-69.82,222.76-192.91C629.93,387,575.71,339.27,504.45,316.86Z"/></svg>